<svg xmlns="http://www.w3.org/2000/svg" viewBox="-379 381 40 40">
    <g id="podcast"><path d="M-359.1 410.2c4.7 0 8.5-3.8 8.5-8.5v-12.2c0-4.7-3.8-8.5-8.5-8.5s-8.5 3.8-8.5 8.5v12.2c0 4.7 3.8 8.5 8.5 8.5zm-6.5-9.6h4c.6 0 1-.4 1-1s-.4-1-1-1h-4v-2h4c.6 0 1-.4 1-1s-.4-1-1-1h-4v-2h4c.6 0 1-.4 1-1s-.4-1-1-1h-4v-1.1c0-3.6 2.9-6.5 6.5-6.5s6.5 2.9 6.5 6.5v1.1h-4c-.6 0-1 .4-1 1 0 .5.5 1 1 1h4v2h-4c-.6 0-1 .4-1 1 0 .5.5 1 1 1h4v2h-4c-.6 0-1 .4-1 1 0 .5.5 1 1 1h4v1.1c0 3.6-2.9 6.5-6.5 6.5s-6.5-2.9-6.5-6.5v-1.1z"/><path d="M-346.6 401.6c0-.5-.5-1-1-1s-1 .5-1 1c0 5.8-4.7 10.5-10.5 10.5s-10.5-4.7-10.5-10.5c0-.5-.5-1-1-1s-1 .5-1 1c0 6.6 5.1 12 11.5 12.5v4.9h-6.5c-.5 0-1 .4-1 1s.5 1 1 1h15c.5 0 1-.4 1-1s-.5-1-1-1h-6.5v-4.9c6.4-.5 11.5-5.9 11.5-12.5z"/>
    </g>
</svg>